<?xml version="1.0" encoding="UTF-8"?>
<svg version="1.1" xmlns="http://www.w3.org/2000/svg">
<path d="M0 0 C75.24 0 150.48 0 228 0 C228 72.93 228 145.86 228 221 C152.76 221 77.52 221 0 221 C0 148.07 0 75.14 0 0 Z " fill="#FCFCFC" transform="translate(0,0)"/>
<path d="M0 0 C6.72294656 4.80210468 12.87770844 10.17003221 19.09375 15.59765625 C22.76623521 18.80377964 26.46722043 21.9745171 30.1875 25.125 C30.71561279 25.57383545 31.24372559 26.0226709 31.7878418 26.48510742 C34.46347811 28.74757167 37.170083 30.93328257 40 33 C39.46568096 37.1123483 37.30189725 39.12656137 34.5 42.0625 C31.09203123 45.69490933 27.81492573 49.36827865 24.6875 53.25 C18.97716698 60.32629398 12.97965167 67.15158904 7 74 C4.21176763 72.71076019 2.01003398 71.31380469 -0.28515625 69.27734375 C-0.89270752 68.74334961 -1.50025879 68.20935547 -2.1262207 67.65917969 C-2.76519287 67.09102539 -3.40416504 66.52287109 -4.0625 65.9375 C-8.58571723 61.96140639 -13.12513877 58.03337013 -17.8125 54.25 C-23.04424445 50.01590051 -28.0417622 45.54953273 -33 41 C-31.59160505 36.70554982 -29.54145224 34.12953521 -26.4375 30.875 C-22.23817306 26.39586958 -18.30744904 21.77168283 -14.44921875 16.9921875 C-9.73949948 11.23836778 -4.85700947 5.62952875 0 0 Z " fill="#F6921E" transform="translate(178,7)"/>
<path d="M0 0 C17.16 0 34.32 0 52 0 C52 17.16 52 34.32 52 52 C34.84 52 17.68 52 0 52 C0 34.84 0 17.68 0 0 Z " fill="#F6921E" transform="translate(133,96)"/>
<path d="M0 0 C17.16 0 34.32 0 52 0 C52 17.16 52 34.32 52 52 C34.84 52 17.68 52 0 52 C0 34.84 0 17.68 0 0 Z " fill="#2A347C" transform="translate(9,96)"/>
<path d="M0 0 C17.16 0 34.32 0 52 0 C52 17.16 52 34.32 52 52 C34.84 52 17.68 52 0 52 C0 34.84 0 17.68 0 0 Z " fill="#2B357C" transform="translate(9,34)"/>
<path d="M0 0 C17.16 0 34.32 0 52 0 C52 16.83 52 33.66 52 51 C34.84 51 17.68 51 0 51 C0 34.17 0 17.34 0 0 Z " fill="#29337B" transform="translate(9,158)"/>
<path d="M0 0 C16.83 0 33.66 0 51 0 C51 17.16 51 34.32 51 52 C34.17 52 17.34 52 0 52 C0 34.84 0 17.68 0 0 Z " fill="#2A347B" transform="translate(71,96)"/>
<path d="M0 0 C16.83 0 33.66 0 51 0 C51 16.83 51 33.66 51 51 C34.17 51 17.34 51 0 51 C0 34.17 0 17.34 0 0 Z " fill="#29337B" transform="translate(133,158)"/>
<path d="M0 0 C16.83 0 33.66 0 51 0 C51 16.83 51 33.66 51 51 C34.17 51 17.34 51 0 51 C0 34.17 0 17.34 0 0 Z " fill="#29337B" transform="translate(71,158)"/>
<path d="M0 0 C16.83 0 33.66 0 51 0 C51 16.83 51 33.66 51 51 C34.17 51 17.34 51 0 51 C0 34.17 0 17.34 0 0 Z " fill="#29337B" transform="translate(71,35)"/>
</svg>
